<svg xmlns="http://www.w3.org/2000/svg" viewBox="0 0 512 512">
  <defs>
    <linearGradient id="bg" x1="0" y1="0" x2="1" y2="1">
      <stop offset="0%" stop-color="#0f0f0f"/>
      <stop offset="100%" stop-color="#1a1a1a"/>
    </linearGradient>
  </defs>
  <rect width="512" height="512" rx="96" fill="url(#bg)"/>
  <!-- QR corner markers -->
  <rect x="64" y="64" width="120" height="120" rx="16" fill="#0d9488"/>
  <rect x="80" y="80" width="88" height="88" rx="8" fill="#0f0f0f"/>
  <rect x="100" y="100" width="48" height="48" rx="4" fill="#0d9488"/>
  <rect x="328" y="64" width="120" height="120" rx="16" fill="#0d9488"/>
  <rect x="344" y="80" width="88" height="88" rx="8" fill="#0f0f0f"/>
  <rect x="364" y="100" width="48" height="48" rx="4" fill="#0d9488"/>
  <rect x="64" y="328" width="120" height="120" rx="16" fill="#0d9488"/>
  <rect x="80" y="344" width="88" height="88" rx="8" fill="#0f0f0f"/>
  <rect x="100" y="364" width="48" height="48" rx="4" fill="#0d9488"/>
  <!-- Center dots pattern -->
  <rect x="232" y="232" width="48" height="48" rx="6" fill="#fff"/>
  <rect x="232" y="64" width="48" height="48" rx="6" fill="#0d9488" opacity="0.5"/>
  <rect x="232" y="136" width="48" height="48" rx="6" fill="#fff" opacity="0.35"/>
  <rect x="64" y="232" width="48" height="48" rx="6" fill="#fff" opacity="0.35"/>
  <rect x="136" y="232" width="48" height="48" rx="6" fill="#0d9488" opacity="0.5"/>
  <rect x="328" y="232" width="48" height="48" rx="6" fill="#0d9488" opacity="0.5"/>
  <rect x="400" y="232" width="48" height="48" rx="6" fill="#fff" opacity="0.35"/>
  <rect x="232" y="328" width="48" height="48" rx="6" fill="#0d9488" opacity="0.5"/>
  <rect x="232" y="400" width="48" height="48" rx="6" fill="#fff" opacity="0.35"/>
  <!-- Bottom-right accent -->
  <rect x="328" y="328" width="48" height="48" rx="6" fill="#0d9488" opacity="0.7"/>
  <rect x="400" y="328" width="48" height="48" rx="6" fill="#fff" opacity="0.25"/>
  <rect x="328" y="400" width="48" height="48" rx="6" fill="#fff" opacity="0.25"/>
  <rect x="400" y="400" width="48" height="48" rx="6" fill="#0d9488" opacity="0.4"/>
</svg>
